<svg xmlns="http://www.w3.org/2000/svg" viewBox="0 0 1200 630" role="img" aria-labelledby="title desc">
  <title id="title">Ardent Tools — agent systems you can inspect</title>
  <desc id="desc">An archival-paper social card showing the evidence path from outcome through mechanism and receipt to an explicit limit.</desc>
  <rect width="1200" height="630" fill="#F7F3E8"/>
  <path d="M72 72h1056M72 558h1056" stroke="#DDD7C8" stroke-width="2"/>

  <g transform="translate(1022 61) scale(0.075)" fill="none" stroke="#9E4A1E" stroke-width="18">
    <path d="M532.977 217.84c-24.111-49.514-21.588-97.889-52.231-144.872-5.601-8.587-10.299-15.17-18.049-22.137-6.557-5.895-12.946-8.168-19.64-12.42 17.59 5.699 32.057 11.439 48.407 20.401A255 255 0 0 1 593.836 164.54c53.077 103.586 23.121 222.013-46.065 308.471-4.602 5.751-10.463 12.091-14.507 18.096 13.618 50.687 10.381 109.807-.41 160.693 7.838-6.498 15.403-13.42 23.297-19.825 13.872-11.256 27.817-21.626 41.13-33.601 37.823-34.02 66.057-77.853 71.147-129.377 4.856-49.155-14.58-98.522-40.503-139.493l.353-.271c62.6 73.76 71.804 168.602 23.058 252.261a266.6 266.6 0 0 1-54.197 64.853c-12.951 11.237-26.316 21.242-39.287 32.746-55.062 48.834-90.694 120.118-88.018 194.538.685 19.049 3.639 29.81 6.765 48.069.397-12.572.64-23.489 2.692-35.978 9.136-55.637 49.203-102.722 98.793-127.68 24.452-12.307 51.671-16.894 77.002-26.8 70.241-26.346 118.009-89.768 119.35-165.324 1.781-70.692-29.237-135.712-77.016-186.66a374 374 0 0 0-37.939-35.284c-9.793-7.884-20.104-15.214-30-23.051 78.226 36.94 143.284 98.903 172.859 181.405a301.6 301.6 0 0 1-10.596 227.036c-31.539 66.551-84.467 115.199-151.724 144.156-17.361 7.475-35.139 13.455-52.694 20.418-39.177 15.538-73.857 42.899-96.811 78.608-28.346-59.028-34.826-120.406-12.847-182.779a277 277 0 0 1 65.926-103.886c17.397-17.462 34.765-29.166 52.596-45.136 44.581-39.927 74.137-90.094 80.322-150.319 3.715-36.171-3.135-71.29-17.693-104.601-.345-.79-.748-1.452-1.195-2.183"/>
  </g>

  <text x="72" y="137" font-family="IBM Plex Mono, ui-monospace, monospace" font-weight="600" font-size="30" fill="#9E4A1E">ardent.tools</text>
  <text x="72" y="230" font-family="IBM Plex Mono, ui-monospace, monospace" font-weight="600" font-size="58" fill="#1C1917">Agent systems</text>
  <text x="72" y="299" font-family="IBM Plex Mono, ui-monospace, monospace" font-weight="600" font-size="58" fill="#1C1917">you can inspect.</text>
  <text x="76" y="348" font-family="Spectral, Georgia, serif" font-size="27" fill="#44403C">Source-linked receipts. Candid lifecycle boundaries.</text>

  <g transform="translate(72 405)">
    <rect width="1056" height="104" fill="#F0EBE0" stroke="#1C1917" stroke-width="2"/>
    <path d="M264 0v104M528 0v104M792 0v104" stroke="#DDD7C8" stroke-width="2"/>
    <g font-family="IBM Plex Mono, ui-monospace, monospace" font-size="19" fill="#1C1917">
      <text x="26" y="43">01 · OUTCOME</text>
      <text x="290" y="43">02 · MECHANISM</text>
      <text x="554" y="43">03 · RECEIPT</text>
      <text x="818" y="43">04 · LIMIT</text>
    </g>
    <g font-family="Spectral, Georgia, serif" font-size="18" fill="#6B6661">
      <text x="26" y="75">name the result</text>
      <text x="290" y="75">bind the rule</text>
      <text x="554" y="75">link the source</text>
      <text x="818" y="75">keep it visible</text>
    </g>
  </g>
  <text x="72" y="591" font-family="IBM Plex Mono, ui-monospace, monospace" font-size="17" fill="#6B6661">AGENT INFRASTRUCTURE · SYSTEM DOSSIERS · ENGINEERING WRITING</text>
</svg>
