<svg xmlns="http://www.w3.org/2000/svg" viewBox="0 0 960 540" font-family="IBM Plex Mono, ui-monospace, monospace">
  <rect width="960" height="540" fill="#EAE9E2"/>

  <!-- Layer 1: MCP surface -->
  <rect x="60" y="40" width="840" height="90" fill="#F3F2ED" stroke="#1C1917" stroke-width="1.5"/>
  <text x="480" y="75" text-anchor="middle" font-size="18" font-weight="600" fill="#1C1917">AGENT-FIRST MCP SURFACE</text>
  <text x="480" y="102" text-anchor="middle" font-size="14" fill="#45423C">137 tools &#183; deferred-schema loading (discovery-gated, not front-loaded)</text>

  <line x1="480" y1="130" x2="480" y2="155" stroke="#1C1917" stroke-width="1.5"/>
  <polygon points="474,150 486,150 480,162" fill="#1C1917"/>

  <!-- Layer 2: standards-as-code -->
  <rect x="60" y="165" width="840" height="90" fill="#F3F2ED" stroke="#1C1917" stroke-width="1.5"/>
  <text x="480" y="200" text-anchor="middle" font-size="18" font-weight="600" fill="#1C1917">STANDARDS-AS-CODE</text>
  <text x="480" y="227" text-anchor="middle" font-size="14" fill="#45423C">rules &#8594; gates &#8594; audit &#183; 284 rules across 13 machine-readable registries</text>

  <line x1="480" y1="255" x2="480" y2="280" stroke="#1C1917" stroke-width="1.5"/>
  <polygon points="474,275 486,275 480,287" fill="#1C1917"/>

  <!-- Layer 3: write-guard stack -->
  <rect x="60" y="290" width="840" height="110" fill="#F3F2ED" stroke="#1C1917" stroke-width="1.5"/>
  <text x="480" y="320" text-anchor="middle" font-size="18" font-weight="600" fill="#1C1917">WRITE-GUARD STACK (defense in depth)</text>
  <rect x="90" y="335" width="240" height="50" fill="none" stroke="#9E4A1E" stroke-width="1.5"/>
  <text x="210" y="365" text-anchor="middle" font-size="13" fill="#7C3A18">infra-policy layer</text>
  <rect x="360" y="335" width="240" height="50" fill="none" stroke="#9E4A1E" stroke-width="1.5"/>
  <text x="480" y="365" text-anchor="middle" font-size="13" fill="#7C3A18">app-level validator</text>
  <rect x="630" y="335" width="240" height="50" fill="none" stroke="#9E4A1E" stroke-width="1.5"/>
  <text x="750" y="365" text-anchor="middle" font-size="13" fill="#7C3A18">raw-CLI-grep layer</text>

  <line x1="480" y1="400" x2="480" y2="425" stroke="#1C1917" stroke-width="1.5"/>
  <polygon points="474,420 486,420 480,432" fill="#1C1917"/>

  <!-- Layer 4: self-improvement loop -->
  <rect x="60" y="435" width="840" height="80" fill="#F3F2ED" stroke="#1C1917" stroke-width="1.5"/>
  <text x="480" y="465" text-anchor="middle" font-size="18" font-weight="600" fill="#1C1917">SELF-IMPROVEMENT LOOP</text>
  <text x="480" y="492" text-anchor="middle" font-size="14" fill="#45423C">transcript_mine &#8594; lesson &#8594; meta_review &#183; measured before/after, not promoted on faith</text>
</svg>
